<mxfile host="app.diagrams.net" agent="Mozilla/5.0 (X11; Linux x86_64) AppleWebKit/537.36 (KHTML, like Gecko) Chrome/134.0.0.0 Safari/537.36" version="26.1.0">
  <diagram name="Page-1" id="2grmOZqmfHHGhnO47oOm">
    <mxGraphModel dx="1368" dy="1860" grid="1" gridSize="10" guides="1" tooltips="1" connect="1" arrows="1" fold="1" page="1" pageScale="1" pageWidth="850" pageHeight="1100" math="0" shadow="0">
      <root>
        <mxCell id="0" />
        <mxCell id="1" parent="0" />
        <mxCell id="F6btn3pXoE5E7Y8iVu70-15" style="rounded=0;orthogonalLoop=1;jettySize=auto;html=1;exitX=1;exitY=0;exitDx=0;exitDy=0;entryX=0;entryY=1;entryDx=0;entryDy=0;endArrow=none;startFill=0;" parent="1" source="F6btn3pXoE5E7Y8iVu70-3" target="F6btn3pXoE5E7Y8iVu70-74" edge="1">
          <mxGeometry relative="1" as="geometry">
            <mxPoint x="460" y="270" as="targetPoint" />
          </mxGeometry>
        </mxCell>
        <mxCell id="F6btn3pXoE5E7Y8iVu70-3" value="Data" style="ellipse;whiteSpace=wrap;html=1;" parent="1" vertex="1">
          <mxGeometry x="570" y="360" width="70" height="50" as="geometry" />
        </mxCell>
        <mxCell id="F6btn3pXoE5E7Y8iVu70-18" style="rounded=0;orthogonalLoop=1;jettySize=auto;html=1;exitX=1;exitY=0.5;exitDx=0;exitDy=0;entryX=0;entryY=0.5;entryDx=0;entryDy=0;endArrow=none;startFill=0;" parent="1" source="F6btn3pXoE5E7Y8iVu70-10" target="F6btn3pXoE5E7Y8iVu70-74" edge="1">
          <mxGeometry relative="1" as="geometry" />
        </mxCell>
        <mxCell id="F6btn3pXoE5E7Y8iVu70-10" value="Total c/IVA" style="ellipse;whiteSpace=wrap;html=1;" parent="1" vertex="1">
          <mxGeometry x="530" y="260" width="70" height="50" as="geometry" />
        </mxCell>
        <mxCell id="F6btn3pXoE5E7Y8iVu70-17" style="rounded=0;orthogonalLoop=1;jettySize=auto;html=1;exitX=1;exitY=0;exitDx=0;exitDy=0;entryX=0;entryY=0.75;entryDx=0;entryDy=0;endArrow=none;startFill=0;" parent="1" source="F6btn3pXoE5E7Y8iVu70-11" target="F6btn3pXoE5E7Y8iVu70-74" edge="1">
          <mxGeometry relative="1" as="geometry">
            <mxPoint x="510" y="270" as="targetPoint" />
          </mxGeometry>
        </mxCell>
        <mxCell id="F6btn3pXoE5E7Y8iVu70-11" value="IVA" style="ellipse;whiteSpace=wrap;html=1;" parent="1" vertex="1">
          <mxGeometry x="525" y="315" width="70" height="50" as="geometry" />
        </mxCell>
        <mxCell id="F6btn3pXoE5E7Y8iVu70-52" style="edgeStyle=orthogonalEdgeStyle;rounded=0;orthogonalLoop=1;jettySize=auto;html=1;endArrow=block;endFill=0;" parent="1" source="F6btn3pXoE5E7Y8iVu70-19" target="F6btn3pXoE5E7Y8iVu70-44" edge="1">
          <mxGeometry relative="1" as="geometry" />
        </mxCell>
        <mxCell id="F6btn3pXoE5E7Y8iVu70-53" value="{Mandatório, OU}" style="edgeLabel;html=1;align=center;verticalAlign=middle;resizable=0;points=[];" parent="F6btn3pXoE5E7Y8iVu70-52" vertex="1" connectable="0">
          <mxGeometry x="-0.2239" y="1" relative="1" as="geometry">
            <mxPoint x="42" y="11" as="offset" />
          </mxGeometry>
        </mxCell>
        <mxCell id="F6btn3pXoE5E7Y8iVu70-68" style="rounded=0;orthogonalLoop=1;jettySize=auto;html=1;endArrow=none;startFill=0;" parent="1" source="F6btn3pXoE5E7Y8iVu70-19" target="F6btn3pXoE5E7Y8iVu70-66" edge="1">
          <mxGeometry relative="1" as="geometry" />
        </mxCell>
        <mxCell id="F6btn3pXoE5E7Y8iVu70-19" value="Cliente" style="rounded=0;whiteSpace=wrap;html=1;" parent="1" vertex="1">
          <mxGeometry x="595" y="100" width="100" height="50" as="geometry" />
        </mxCell>
        <mxCell id="F6btn3pXoE5E7Y8iVu70-26" style="rounded=0;orthogonalLoop=1;jettySize=auto;html=1;exitX=0.5;exitY=1;exitDx=0;exitDy=0;entryX=0.25;entryY=0;entryDx=0;entryDy=0;endArrow=none;startFill=0;" parent="1" source="F6btn3pXoE5E7Y8iVu70-20" target="F6btn3pXoE5E7Y8iVu70-19" edge="1">
          <mxGeometry relative="1" as="geometry" />
        </mxCell>
        <mxCell id="F6btn3pXoE5E7Y8iVu70-20" value="&lt;u&gt;Código&lt;/u&gt;&lt;div&gt;&lt;u&gt;Cliente&lt;/u&gt;&lt;/div&gt;" style="ellipse;whiteSpace=wrap;html=1;" parent="1" vertex="1">
          <mxGeometry x="580" y="20" width="70" height="50" as="geometry" />
        </mxCell>
        <mxCell id="F6btn3pXoE5E7Y8iVu70-47" style="rounded=0;orthogonalLoop=1;jettySize=auto;html=1;exitX=0.5;exitY=1;exitDx=0;exitDy=0;endArrow=none;startFill=0;" parent="1" source="F6btn3pXoE5E7Y8iVu70-21" target="F6btn3pXoE5E7Y8iVu70-44" edge="1">
          <mxGeometry relative="1" as="geometry" />
        </mxCell>
        <mxCell id="F6btn3pXoE5E7Y8iVu70-21" value="Morada" style="ellipse;whiteSpace=wrap;html=1;" parent="1" vertex="1">
          <mxGeometry x="680" y="-80" width="70" height="50" as="geometry" />
        </mxCell>
        <mxCell id="F6btn3pXoE5E7Y8iVu70-28" style="rounded=0;orthogonalLoop=1;jettySize=auto;html=1;entryX=0.5;entryY=0;entryDx=0;entryDy=0;endArrow=none;startFill=0;" parent="1" source="F6btn3pXoE5E7Y8iVu70-22" target="F6btn3pXoE5E7Y8iVu70-21" edge="1">
          <mxGeometry relative="1" as="geometry" />
        </mxCell>
        <mxCell id="F6btn3pXoE5E7Y8iVu70-22" value="Rua" style="ellipse;whiteSpace=wrap;html=1;" parent="1" vertex="1">
          <mxGeometry x="680" y="-150" width="70" height="50" as="geometry" />
        </mxCell>
        <mxCell id="F6btn3pXoE5E7Y8iVu70-29" style="rounded=0;orthogonalLoop=1;jettySize=auto;html=1;exitX=1;exitY=1;exitDx=0;exitDy=0;entryX=0;entryY=0;entryDx=0;entryDy=0;endArrow=none;startFill=0;" parent="1" source="F6btn3pXoE5E7Y8iVu70-23" target="F6btn3pXoE5E7Y8iVu70-21" edge="1">
          <mxGeometry relative="1" as="geometry" />
        </mxCell>
        <mxCell id="F6btn3pXoE5E7Y8iVu70-23" value="Localidade" style="ellipse;whiteSpace=wrap;html=1;" parent="1" vertex="1">
          <mxGeometry x="610" y="-150" width="70" height="50" as="geometry" />
        </mxCell>
        <mxCell id="F6btn3pXoE5E7Y8iVu70-27" style="rounded=0;orthogonalLoop=1;jettySize=auto;html=1;exitX=0;exitY=1;exitDx=0;exitDy=0;entryX=1;entryY=0;entryDx=0;entryDy=0;endArrow=none;startFill=0;" parent="1" source="F6btn3pXoE5E7Y8iVu70-24" target="F6btn3pXoE5E7Y8iVu70-21" edge="1">
          <mxGeometry relative="1" as="geometry" />
        </mxCell>
        <mxCell id="F6btn3pXoE5E7Y8iVu70-24" value="Código&lt;div&gt;Postal&lt;/div&gt;" style="ellipse;whiteSpace=wrap;html=1;" parent="1" vertex="1">
          <mxGeometry x="750" y="-150" width="70" height="50" as="geometry" />
        </mxCell>
        <mxCell id="F6btn3pXoE5E7Y8iVu70-48" style="rounded=0;orthogonalLoop=1;jettySize=auto;html=1;exitX=1;exitY=1;exitDx=0;exitDy=0;endArrow=none;startFill=0;" parent="1" source="F6btn3pXoE5E7Y8iVu70-30" target="F6btn3pXoE5E7Y8iVu70-44" edge="1">
          <mxGeometry relative="1" as="geometry" />
        </mxCell>
        <mxCell id="F6btn3pXoE5E7Y8iVu70-30" value="Nome" style="ellipse;whiteSpace=wrap;html=1;" parent="1" vertex="1">
          <mxGeometry x="610" y="-70" width="70" height="50" as="geometry" />
        </mxCell>
        <mxCell id="F6btn3pXoE5E7Y8iVu70-51" style="edgeStyle=orthogonalEdgeStyle;rounded=0;orthogonalLoop=1;jettySize=auto;html=1;exitX=0.5;exitY=0;exitDx=0;exitDy=0;endArrow=block;endFill=0;" parent="1" source="F6btn3pXoE5E7Y8iVu70-34" target="F6btn3pXoE5E7Y8iVu70-44" edge="1">
          <mxGeometry relative="1" as="geometry">
            <Array as="points">
              <mxPoint x="770" y="80" />
              <mxPoint x="715" y="80" />
            </Array>
          </mxGeometry>
        </mxCell>
        <mxCell id="F6btn3pXoE5E7Y8iVu70-69" style="rounded=0;orthogonalLoop=1;jettySize=auto;html=1;endArrow=none;startFill=0;" parent="1" source="F6btn3pXoE5E7Y8iVu70-34" target="F6btn3pXoE5E7Y8iVu70-65" edge="1">
          <mxGeometry relative="1" as="geometry" />
        </mxCell>
        <mxCell id="F6btn3pXoE5E7Y8iVu70-34" value="Agente da Empresa" style="rounded=0;whiteSpace=wrap;html=1;" parent="1" vertex="1">
          <mxGeometry x="740" y="100" width="100" height="50" as="geometry" />
        </mxCell>
        <mxCell id="F6btn3pXoE5E7Y8iVu70-70" style="rounded=0;orthogonalLoop=1;jettySize=auto;html=1;endArrow=none;startFill=0;" parent="1" source="F6btn3pXoE5E7Y8iVu70-35" target="F6btn3pXoE5E7Y8iVu70-67" edge="1">
          <mxGeometry relative="1" as="geometry" />
        </mxCell>
        <mxCell id="F6btn3pXoE5E7Y8iVu70-35" value="Artigo" style="rounded=0;whiteSpace=wrap;html=1;" parent="1" vertex="1">
          <mxGeometry x="880" y="270" width="100" height="50" as="geometry" />
        </mxCell>
        <mxCell id="F6btn3pXoE5E7Y8iVu70-64" style="rounded=0;orthogonalLoop=1;jettySize=auto;html=1;endArrow=none;startFill=0;" parent="1" source="F6btn3pXoE5E7Y8iVu70-36" target="F6btn3pXoE5E7Y8iVu70-35" edge="1">
          <mxGeometry relative="1" as="geometry" />
        </mxCell>
        <mxCell id="F6btn3pXoE5E7Y8iVu70-36" value="&lt;u&gt;Código&lt;/u&gt;&lt;div&gt;&lt;u&gt;Artigo&lt;/u&gt;&lt;/div&gt;" style="ellipse;whiteSpace=wrap;html=1;" parent="1" vertex="1">
          <mxGeometry x="980" y="330" width="70" height="50" as="geometry" />
        </mxCell>
        <mxCell id="F6btn3pXoE5E7Y8iVu70-63" style="rounded=0;orthogonalLoop=1;jettySize=auto;html=1;endArrow=none;startFill=0;" parent="1" source="F6btn3pXoE5E7Y8iVu70-37" target="F6btn3pXoE5E7Y8iVu70-35" edge="1">
          <mxGeometry relative="1" as="geometry" />
        </mxCell>
        <mxCell id="F6btn3pXoE5E7Y8iVu70-37" value="Descrição" style="ellipse;whiteSpace=wrap;html=1;" parent="1" vertex="1">
          <mxGeometry x="990" y="265" width="70" height="50" as="geometry" />
        </mxCell>
        <mxCell id="F6btn3pXoE5E7Y8iVu70-62" style="rounded=0;orthogonalLoop=1;jettySize=auto;html=1;endArrow=none;startFill=0;" parent="1" source="F6btn3pXoE5E7Y8iVu70-38" target="F6btn3pXoE5E7Y8iVu70-35" edge="1">
          <mxGeometry relative="1" as="geometry" />
        </mxCell>
        <mxCell id="F6btn3pXoE5E7Y8iVu70-38" value="Preço" style="ellipse;whiteSpace=wrap;html=1;" parent="1" vertex="1">
          <mxGeometry x="980" y="200" width="70" height="50" as="geometry" />
        </mxCell>
        <mxCell id="F6btn3pXoE5E7Y8iVu70-43" style="rounded=0;orthogonalLoop=1;jettySize=auto;html=1;exitX=0.5;exitY=1;exitDx=0;exitDy=0;entryX=0.75;entryY=0;entryDx=0;entryDy=0;endArrow=none;startFill=0;" parent="1" source="F6btn3pXoE5E7Y8iVu70-42" target="F6btn3pXoE5E7Y8iVu70-34" edge="1">
          <mxGeometry relative="1" as="geometry">
            <Array as="points" />
          </mxGeometry>
        </mxCell>
        <mxCell id="F6btn3pXoE5E7Y8iVu70-42" value="&lt;u&gt;Código&lt;/u&gt;&lt;div&gt;&lt;u&gt;Agente&lt;/u&gt;&lt;/div&gt;" style="ellipse;whiteSpace=wrap;html=1;" parent="1" vertex="1">
          <mxGeometry x="790" y="20" width="70" height="50" as="geometry" />
        </mxCell>
        <mxCell id="F6btn3pXoE5E7Y8iVu70-44" value="Pessoa" style="rounded=0;whiteSpace=wrap;html=1;" parent="1" vertex="1">
          <mxGeometry x="665" y="10" width="100" height="50" as="geometry" />
        </mxCell>
        <mxCell id="F6btn3pXoE5E7Y8iVu70-49" style="rounded=0;orthogonalLoop=1;jettySize=auto;html=1;exitX=0;exitY=1;exitDx=0;exitDy=0;endArrow=none;startFill=0;" parent="1" source="F6btn3pXoE5E7Y8iVu70-45" target="F6btn3pXoE5E7Y8iVu70-44" edge="1">
          <mxGeometry relative="1" as="geometry" />
        </mxCell>
        <mxCell id="F6btn3pXoE5E7Y8iVu70-45" value="&lt;u&gt;Id&lt;/u&gt;" style="ellipse;whiteSpace=wrap;html=1;" parent="1" vertex="1">
          <mxGeometry x="750" y="-70" width="70" height="50" as="geometry" />
        </mxCell>
        <mxCell id="F6btn3pXoE5E7Y8iVu70-58" style="rounded=0;orthogonalLoop=1;jettySize=auto;html=1;endArrow=none;startFill=0;entryX=0.5;entryY=1;entryDx=0;entryDy=0;" parent="1" source="F6btn3pXoE5E7Y8iVu70-55" target="F6btn3pXoE5E7Y8iVu70-67" edge="1">
          <mxGeometry relative="1" as="geometry">
            <mxPoint x="780" y="340" as="targetPoint" />
          </mxGeometry>
        </mxCell>
        <mxCell id="F6btn3pXoE5E7Y8iVu70-55" value="Quantidade" style="ellipse;whiteSpace=wrap;html=1;" parent="1" vertex="1">
          <mxGeometry x="790" y="350" width="70" height="50" as="geometry" />
        </mxCell>
        <mxCell id="F6btn3pXoE5E7Y8iVu70-59" style="rounded=0;orthogonalLoop=1;jettySize=auto;html=1;endArrow=none;startFill=0;entryX=0.5;entryY=1;entryDx=0;entryDy=0;" parent="1" source="F6btn3pXoE5E7Y8iVu70-56" target="F6btn3pXoE5E7Y8iVu70-74" edge="1">
          <mxGeometry relative="1" as="geometry">
            <mxPoint x="810" y="340" as="targetPoint" />
          </mxGeometry>
        </mxCell>
        <mxCell id="F6btn3pXoE5E7Y8iVu70-56" value="Total" style="ellipse;whiteSpace=wrap;html=1;" parent="1" vertex="1">
          <mxGeometry x="710" y="380" width="70" height="50" as="geometry" />
        </mxCell>
        <mxCell id="F6btn3pXoE5E7Y8iVu70-72" style="rounded=0;orthogonalLoop=1;jettySize=auto;html=1;endArrow=none;startFill=0;" parent="1" source="F6btn3pXoE5E7Y8iVu70-65" edge="1">
          <mxGeometry relative="1" as="geometry">
            <mxPoint x="731.0526315789475" y="269.9999999999998" as="targetPoint" />
          </mxGeometry>
        </mxCell>
        <mxCell id="F6btn3pXoE5E7Y8iVu70-65" value="Vende" style="rhombus;whiteSpace=wrap;html=1;" parent="1" vertex="1">
          <mxGeometry x="760" y="180" width="60" height="40" as="geometry" />
        </mxCell>
        <mxCell id="F6btn3pXoE5E7Y8iVu70-73" style="rounded=0;orthogonalLoop=1;jettySize=auto;html=1;endArrow=none;startFill=0;" parent="1" source="F6btn3pXoE5E7Y8iVu70-66" edge="1">
          <mxGeometry relative="1" as="geometry">
            <mxPoint x="692.8947368421052" y="269.9999999999998" as="targetPoint" />
          </mxGeometry>
        </mxCell>
        <mxCell id="F6btn3pXoE5E7Y8iVu70-66" value="Compra" style="rhombus;whiteSpace=wrap;html=1;" parent="1" vertex="1">
          <mxGeometry x="615" y="180" width="60" height="40" as="geometry" />
        </mxCell>
        <mxCell id="F6btn3pXoE5E7Y8iVu70-71" style="rounded=0;orthogonalLoop=1;jettySize=auto;html=1;endArrow=none;startFill=0;" parent="1" source="F6btn3pXoE5E7Y8iVu70-67" edge="1">
          <mxGeometry relative="1" as="geometry">
            <mxPoint x="760" y="294.9999999999998" as="targetPoint" />
          </mxGeometry>
        </mxCell>
        <mxCell id="F6btn3pXoE5E7Y8iVu70-67" value="Possui" style="rhombus;whiteSpace=wrap;html=1;" parent="1" vertex="1">
          <mxGeometry x="795" y="275" width="60" height="40" as="geometry" />
        </mxCell>
        <mxCell id="F6btn3pXoE5E7Y8iVu70-74" value="Fatura" style="rounded=0;whiteSpace=wrap;html=1;" parent="1" vertex="1">
          <mxGeometry x="660" y="270" width="100" height="50" as="geometry" />
        </mxCell>
        <mxCell id="F6btn3pXoE5E7Y8iVu70-76" style="rounded=0;orthogonalLoop=1;jettySize=auto;html=1;endArrow=none;startFill=0;" parent="1" source="F6btn3pXoE5E7Y8iVu70-75" target="F6btn3pXoE5E7Y8iVu70-74" edge="1">
          <mxGeometry relative="1" as="geometry" />
        </mxCell>
        <mxCell id="F6btn3pXoE5E7Y8iVu70-75" value="&lt;u&gt;Nr&lt;/u&gt;" style="ellipse;whiteSpace=wrap;html=1;" parent="1" vertex="1">
          <mxGeometry x="640" y="380" width="70" height="50" as="geometry" />
        </mxCell>
      </root>
    </mxGraphModel>
  </diagram>
</mxfile>
